<?xml version="1.0" encoding="utf-8"?>
<!-- Generator: Adobe Illustrator 26.3.1, SVG Export Plug-In . SVG Version: 6.00 Build 0)  -->
<svg version="1.1" id="レイヤー_1" xmlns="http://www.w3.org/2000/svg" xmlns:xlink="http://www.w3.org/1999/xlink" x="0px"
	 y="0px" viewBox="0 0 346.8 105.4" style="enable-background:new 0 0 346.8 105.4;" xml:space="preserve">
<style type="text/css">
	.st0{fill:#FFFFFF;}
	.st1{fill:#040000;}
</style>
<g>
	<path class="st0" d="M346.7,42.9c0.2-0.4,0.1-0.8-0.1-1c-0.2-0.2-0.6-0.4-1-0.1c-0.5,0.3-0.9,0.5-1.3,0.4
		c-9.1-2.6-18.4-1.9-27.2-0.8c-5.5,0.7-11,1.7-16.4,2.8c-4.4,0.8-8.9,1.7-13.4,2.3c-0.7,0.1-1.4,0.2-2,0.3
		c-4.6,0.7-9.4,1.4-14.3,0.7c-0.3-0.1-0.5-0.3-0.6-0.6c0-0.3,0.2-0.6,0.4-0.7l0.1,0c1.5-0.5,2.9-1,4.2-1.8c1-0.5,3.4-3.1,3.3-3.8
		c-0.2-1-2.4-2.7-3.5-3.2c-3.7-1.7-10.6,2.5-12.6,5.9c-0.3,0.5-0.4,1.1-0.5,1.8c0,0.2,0,0.4-0.1,0.6c0,0.3-0.3,0.5-0.5,0.5l-0.2,0
		c-0.5,0.1-1,0.2-1.5,0.3c-5.9,0.9-11.9,1.8-18,1.8c-0.1,0-0.2,0-0.3,0c-8.1,0-9.4-0.2-16.6-1.4c-0.7-0.1-1.5-0.2-2.2-0.3
		c-2.7-0.3-5.4-0.7-7.9-2.3c-0.2-0.1-0.3-0.4-0.3-0.6c0-0.3,0.2-0.5,0.4-0.6c1-0.4,1.9-0.9,2.8-1.4c3.3-1.7,6.4-3.3,10.4-2.2
		c0.2,0,0.4,0,0.5-0.1c0.4-0.2,0.7-0.4,1.1-0.6c0.1-0.1,0.2-0.2,0.2-0.3c0-0.1,0-0.3-0.1-0.4c-0.4-0.3-0.8-0.6-1.2-0.8
		c-0.5-0.2-1.1-0.2-1.7-0.2l-0.3,0c-0.3,0-0.6-0.3-0.6-0.6c-0.1-1.7-0.3-2.7-0.7-3c-0.3-0.2-0.7-0.1-1.4,0.2c-5.1,2.2-7.5,3-11,0.3
		c0,0-0.1,0-0.3,0c-0.4,0.1-1,0.4-1.1,0.6c-0.1,0.3,0.2,1.1,0.6,1.5c0.5,0.4,1.1,0.8,1.7,1.1l0.1,0.1c0.2,0.1,0.3,0.2,0.3,0.4
		c0,0.2,0,0.4-0.1,0.5c-2.3,3.4-5.5,4.5-9.3,5.7l-0.4,0.1c-2.7,0.9-4.8,1.3-7.4,1.7c-2,0.3-4.2,0.7-7.1,1.4l-0.3,0
		c-7.8,1.1-8.6,1.3-12.4,1c-3.1,0-3.5-0.1-4.8-0.3c-0.2,0-0.5-0.1-0.8-0.1c-2.2-0.4-3.7-1.4-4.3-2.9c-0.5-1.5,0-3.3,1.4-5
		c0.4-0.4,0.8-0.9,1.2-1.3c0.6-0.6,1.2-1.3,1.8-2c0.4-0.5,0.6-1.2,0.8-1.9l0-0.1c0-0.1,0-0.3-0.1-0.4c-0.1-0.1-0.2-0.2-0.4-0.2
		l-0.2,0c-0.8,0.1-1.5,0.1-1.9,0.5c-3.2,3.3-6.9,5.8-11.5,7.7c-1.4,0.6-2.8,1.2-4.2,1.7c-0.9,0.3-1.7,0.7-2.5,1
		c-7.7,3.1-26.8,3.9-36.1,3c-3.6-0.3-5.6-1.7-6.7-4.4c-0.1-0.3,0.1-0.7,0.4-0.9c1.6-0.6,3-1.7,4.4-2.8c2.2-1.8,4.4-3.6,7.8-3.7
		c0.2,0,0.5,0.1,0.6,0.3c0.1,0.2,0.2,0.4,0.1,0.6c-0.1,0.1-0.1,0.3-0.2,0.4c-0.3,0.8-0.5,1.5-1,1.9c-0.8,0.8-2.1,1.9-3.4,3
		c-1,0.9-2,1.7-2.6,2.3c-0.4,0.4-0.5,0.8-0.6,1.4c0,0.3,0.2,0.6,0.5,0.7c0.8,0.3,1,0.2,1.3-0.1c2.1-1.6,5.4-4.4,7.1-6.3
		c0.9-1.1,1.5-2.8,1.4-4c-0.1-0.8-0.8-1.5-1.5-2.3c-0.2-0.2-0.4-0.5-0.6-0.7c-0.2-0.3-0.2-0.7,0.1-1c0.4-0.3,0.8-0.7,1.3-1.1
		c1.3-1.1,2.7-2.2,4-3.5l0.1-0.1c4.8-4.6,7.1-6.9,11.4-12.2c1-1.1,2.9-5,3.2-6.5c0,0,0-0.1-0.1-0.3c-0.3-0.4-0.9-0.8-1.2-0.9
		c-0.3,0-0.9,0.7-1.2,1.3c-0.8,1.5-4.2,7.7-6.5,10.1c-3.7,3.7-4.2,4.2-6.4,6.2c-0.7,0.7-1.7,1.6-3,2.8c-3,2.9-7.2,6.4-12.6,8.3
		c-1.2,0.4-2.9,1.4-3.7,2.8c-2.2,3.6-7.1,3.4-7.7,3.4c-2.6-0.2-3.2-0.1-5.1,0.2c-0.7,0.1-1.5,0.2-2.5,0.4c-1.7,0.2-3.8,0.8-6.3,1.4
		c-4.8,1.3-10.8,2.9-18,3.3c-0.6,0-1.3-0.1-2-0.2c-0.3-0.1-0.5-0.3-0.6-0.6c0-0.3,0.1-0.6,0.4-0.7l1.1-0.6c1.8-1,3.5-1.9,5.2-2.8
		c1.5-0.9,3-2.2,2.1-4.4c-0.9-2-2.7-2.8-4.9-2c-4.9,1.6-10.4,4-13.5,9.2c-0.1,0.2-0.2,0.3-0.4,0.3c-5.1,1-18.9,2.2-23.5,2.5
		c-6.9,0.5-10.9-0.6-16.3-2.2c-1.8-0.5-3.8-1.1-6.2-1.6c-0.2-0.1-0.4-0.3-0.5-0.5c-0.1-0.2,0-0.5,0.2-0.7c0.3-0.3,0.6-0.5,0.9-0.8
		c1.1-1,2.1-1.9,3-2.9c3.2-3.6,7.1-5.7,12-6.5l0.7-0.1c3.2-0.5,10.8-1.7,13-2.5c0.4-0.1,0.9-0.1,1.4-0.1c0.7,0,1.5,0,1.8-0.4
		c0.2-0.2,0.2-0.6,0.1-1.1c-0.1-0.5-0.3-0.9-0.6-1.1c-0.6-0.4-1.5-0.1-2.4,0.2c-0.4,0.1-0.7,0.2-1,0.3c-0.5,0.1-1.8,0.3-3.4,0.6
		c-2.7,0.5-6.1,1.1-7,1.2c-0.7,0.2-1.4,0.3-2.1,0.4c-0.3,0.1-0.5-0.1-0.7-0.3c-0.2-0.2-0.2-0.5,0-0.8c0.6-0.9,1.3-1.8,1.9-2.7
		c2.1-2.9,4.3-6,6-9.2c1.4-2.5,2.5-6.5,3.6-10.1c0.6-2.1,1.2-4,1.7-5.5C38.7,2,38.3,1,37.9,0.2c0,0-0.3-0.2-0.7-0.2
		c-0.4,0-0.6,0-0.6,0.1c-0.5,0.6-0.7,1.3-0.9,2.1l-0.1,0.2c-0.1,0.3-0.1,0.5-0.1,0.8c0,0.3-0.1,0.6-0.1,0.8
		c-2,6.8-5.1,16.4-9.9,21.8c-3.5,3.9-6.5,6.6-9.6,8.5c-2.4,1.5-5.2,2.5-7.8,3.5c-1.6,0.6-3.3,1.3-4.9,2c-0.9,0.4-1.6,1-2.3,1.7
		c-0.2,0.2-0.4,0.4-0.7,0.6C0.1,42.1,0,42.3,0,42.7c0,0.3,0,0.5,0.1,0.6l2.1,2.5c0.2,0.3,0.2,0.7,0,0.9c-0.4,0.4-1,1-1.1,1.1
		C1,47.9,0.9,48,0.8,48.2c-0.1,0.1-0.2,0.3-0.3,0.4c-0.4,0.5-0.3,1.1,0,1.4c0.3,0.3,0.8,0.6,1.4,0.3C2.5,50,3,49.6,3.2,49.5
		C3.4,49.3,3.7,49,4,48.6c0.4-0.5,0.8-1,1.2-1.2c0.7-0.3,1.5-0.4,2.3-0.2c1.3,0.3,2.4,0.5,3.3,0.8c1.6,0.4,3,0.7,4.7,1
		c1.2,0.2,2.4,0.4,3.5,0.6c4.1,0.7,8,1.4,12.1,1.4c3.9,0,9.2-0.5,13.8-0.9c1.8-0.2,3.5-0.3,5.1-0.4c0.6-0.1,1.3-0.1,1.9-0.2
		c1.9-0.2,3.9-0.4,5.9-0.3c2,0.1,4,0.5,6,0.9c3.5,0.7,7.1,1.4,10.5,0.6c1.8-0.4,2.9-0.8,4.1-1.1c1.9-0.6,4.1-1.3,10.5-2.6
		c3.7-0.8,3.8-0.8,6.3-1c0.4,0,0.9-0.1,1.5-0.1c0.8-0.1,1.7,0.1,2.5,0.2c0.8,0.1,1.7,0.3,2.6,0.2c1-0.1,2-0.5,3.1-1
		c0.3-0.1,0.7-0.3,1-0.4c0.1,0,0.2,0,0.2,0c0.2,0,0.5,0.1,0.6,0.4c2.6,4.8,7.2,5.1,11.7,5.5c0.9,0.1,1.8,0.1,2.7,0.2
		c3.8,0.4,18.7,0.2,22.1-0.9c5-1.6,9.9-3.4,14.8-5.2c1.8-0.7,3.6-1.3,5.4-2c0.2-0.1,0.4,0,0.6,0.1c0.2,0.1,0.3,0.3,0.3,0.5
		c0,0.3,0,0.6,0.1,0.9c0.4,2.5,2.5,5.1,4.5,5.4c4.1,0.7,7.8,1.1,11.5,1c9.2-0.1,13.5-1.4,20-3.3c2.4-0.7,5.1-1.5,8.5-2.4
		c1-0.2,2.2-0.5,2.7,0c3.1,2.5,6.7,3,10.5,3.6l1.8,0.3c9.6,1.5,16.6,2.6,26.6,1.3c1.4-0.2,2.9-0.4,4.3-0.7c4.5-0.8,9.3-1.6,14.3-0.4
		c5.8,1.3,12.4,0.4,18.3-0.4c5.4-0.7,10.9-1.8,16.1-2.7c5.6-1,11.4-2.1,17.2-2.9c7.4-1,14-1.6,20.6,0.6c1.2,0.4,1.5,0.5,2.7,0.6
		C345,44.4,346.2,43.8,346.7,42.9z M5.3,43.5c-0.5,0-1-0.1-1.6-0.3c-0.2-0.1-0.4-0.3-0.4-0.5c0-0.3,0.1-0.5,0.3-0.6l5.3-2.5
		c0.3-0.2,0.7,0,0.8,0.2c0.2,0.2,0.2,0.6,0,0.9C8.1,42.6,6.8,43.5,5.3,43.5z M60.1,45.7C60.1,45.7,60.1,45.7,60.1,45.7
		c-0.1,0-0.2-0.1-0.2-0.3c0-0.1,0-0.1-0.1-0.2l0-0.1l0.8-0.6c2.9-2.2,5.9-4.4,9.7-4.8c0.3,0,0.6,0.1,0.7,0.4c0.1,0.3,0,0.6-0.2,0.8
		C67.5,43.6,64,45.2,60.1,45.7z M265.2,45.3l-0.4,0.1l0.2-0.3c3.3-4.4,7.1-5.9,10.6-4.4l0.3,0.1l-0.3,0.1c-1.9,0.6-3.8,1.5-5.6,2.3
		C268.3,44.1,266.7,44.8,265.2,45.3z"/>
	<path class="st0" d="M172.3,26.2c0.2,0.3,0.4,0.5,0.5,0.7c0.9,1.1,1.8,1.9,2.6,2.6c0.4,0.4,1.1,1,1.7,1c0.3,0,0.6-0.5,0.8-0.7
		c0.1-0.2,0.2-0.5,0.2-0.7c-0.4-2.2-2.8-4.7-4.6-4.7c-0.1,0-0.1,0-0.2,0c-0.2,0-0.4,0.1-0.7,0.3C172.1,25.1,171.9,25.7,172.3,26.2z"
		/>
</g>
<g>
	<path class="st1" d="M88.3,102.2v2.9h0.8v0.3h-2.4v-0.3h0.7v-5.9h-0.7V99h0.6c0.4,0,0.8,0,1.1-0.1v0.8h0c0.3-0.6,0.7-0.8,1.2-0.8
		c0.5,0,0.9,0.2,1.2,0.6c0.4,0.4,0.5,0.8,0.5,1.4c0,0.6-0.2,1.1-0.6,1.5c-0.4,0.4-0.8,0.6-1.3,0.6C89,102.9,88.6,102.6,88.3,102.2
		L88.3,102.2z M90.2,100.9c0-0.6,0-1-0.1-1.2c0-0.2-0.1-0.4-0.2-0.5c-0.1-0.1-0.3-0.1-0.4-0.1c-0.3,0-0.6,0.1-0.8,0.3
		c-0.2,0.2-0.3,0.4-0.4,0.6c-0.1,0.2-0.1,0.5-0.1,0.9c0,0.4,0,0.7,0.1,0.9c0.1,0.2,0.2,0.4,0.4,0.6c0.2,0.2,0.4,0.2,0.7,0.2
		c0.3,0,0.5-0.1,0.6-0.3C90.2,102.1,90.2,101.6,90.2,100.9z"/>
	<path class="st1" d="M102.7,102.6v-6h-0.8v-0.2h0.7c0.4,0,0.8,0,1-0.1v3.6h0c0.3-0.6,0.8-0.9,1.4-0.9c0.2,0,0.5,0.1,0.7,0.2
		s0.4,0.3,0.4,0.5c0.1,0.2,0.1,0.6,0.1,1.1v1.9h0.6v0.2h-2.2v-0.2h0.6v-1.9c0-0.5,0-0.9,0-1.1c0-0.2-0.2-0.3-0.4-0.3
		c-0.3,0-0.5,0.1-0.7,0.4c-0.2,0.2-0.3,0.5-0.4,0.7c-0.1,0.3-0.1,0.7-0.1,1.2v1.1h0.6v0.2H102v-0.2H102.7z"/>
	<path class="st1" d="M117.8,100.9c0-0.6,0.2-1,0.6-1.4s0.9-0.6,1.4-0.6c0.6,0,1,0.2,1.4,0.6c0.4,0.4,0.6,0.9,0.6,1.4
		c0,0.6-0.2,1.1-0.6,1.5s-0.9,0.6-1.4,0.6c-0.5,0-1-0.2-1.4-0.6S117.8,101.5,117.8,100.9z M120.7,100.9c0-0.6,0-1-0.1-1.2
		c0-0.2-0.1-0.3-0.3-0.5s-0.3-0.2-0.6-0.2c-0.2,0-0.4,0.1-0.6,0.2c-0.2,0.1-0.2,0.3-0.3,0.5c0,0.2-0.1,0.6-0.1,1.2
		c0,0.6,0,1,0.1,1.2s0.1,0.3,0.3,0.5c0.1,0.1,0.3,0.2,0.6,0.2c0.2,0,0.4-0.1,0.6-0.2s0.2-0.3,0.3-0.5S120.7,101.5,120.7,100.9z"/>
	<path class="st1" d="M135.4,97.9V99h1.2v0.2h-1.2v2.4c0,0.4,0,0.6,0.1,0.7c0,0.1,0.2,0.2,0.4,0.2c0.2,0,0.3-0.1,0.5-0.2
		c0.1-0.1,0.3-0.3,0.3-0.5h0.2c-0.1,0.6-0.6,0.9-1.4,0.9c-0.3,0-0.6-0.1-0.7-0.2c-0.1-0.1-0.2-0.3-0.3-0.4c0-0.2-0.1-0.4-0.1-0.7
		v-2.4h-0.9V99h0.9v-1C134.8,97.9,135.1,97.9,135.4,97.9z"/>
	<path class="st1" d="M148.6,100.9c0-0.6,0.2-1,0.6-1.4s0.9-0.6,1.4-0.6c0.6,0,1,0.2,1.4,0.6c0.4,0.4,0.6,0.9,0.6,1.4
		c0,0.6-0.2,1.1-0.6,1.5s-0.9,0.6-1.4,0.6c-0.5,0-1-0.2-1.4-0.6S148.6,101.5,148.6,100.9z M151.5,100.9c0-0.6,0-1-0.1-1.2
		c0-0.2-0.1-0.3-0.3-0.5s-0.3-0.2-0.6-0.2c-0.2,0-0.4,0.1-0.6,0.2c-0.2,0.1-0.2,0.3-0.3,0.5c0,0.2-0.1,0.6-0.1,1.2
		c0,0.6,0,1,0.1,1.2s0.1,0.3,0.3,0.5c0.1,0.1,0.3,0.2,0.6,0.2c0.2,0,0.4-0.1,0.6-0.2s0.2-0.3,0.3-0.5S151.5,101.5,151.5,100.9z"/>
	<path class="st1" d="M167.1,99.5c0.2,0.3,0.3,0.5,0.3,0.8c0,0.4-0.2,0.8-0.5,1s-0.7,0.3-0.9,0.3l-0.2,0c-0.1,0-0.3,0-0.5,0
		c-0.2,0-0.3,0-0.3,0c-0.1,0-0.3,0.1-0.4,0.2c-0.2,0.1-0.3,0.2-0.3,0.4c0,0.1,0,0.2,0.1,0.3s0.3,0.1,0.7,0.1l1.7-0.1
		c0.3,0,0.6,0.1,0.8,0.3c0.2,0.2,0.3,0.5,0.3,0.9c0,0.5-0.2,0.9-0.6,1.2s-0.9,0.5-1.6,0.5c-0.5,0-1-0.1-1.3-0.3
		c-0.3-0.2-0.5-0.5-0.5-0.8c0-0.2,0.1-0.3,0.2-0.5s0.3-0.3,0.7-0.5c-0.5-0.1-0.8-0.4-0.8-0.9c0-0.6,0.3-1,1-1.1v0
		c-0.5-0.2-0.8-0.6-0.8-1.1c0-0.4,0.2-0.7,0.5-1c0.3-0.3,0.7-0.4,1.1-0.4c0.5,0,0.9,0.2,1.2,0.5c0.2-0.3,0.5-0.5,0.8-0.5
		c0.1,0,0.2,0,0.3,0.1c0.1,0.1,0.1,0.2,0.1,0.3c0,0.1,0,0.2-0.1,0.3c-0.1,0.1-0.1,0.1-0.2,0.1c-0.1,0-0.2-0.1-0.3-0.2
		c-0.1-0.1-0.1-0.2-0.2-0.2C167.3,99.3,167.2,99.4,167.1,99.5z M165,103.4c-0.3,0.2-0.5,0.5-0.5,0.9c0,0.6,0.4,0.9,1.2,0.9
		c0.5,0,1-0.1,1.3-0.4c0.3-0.2,0.5-0.5,0.5-0.9c0-0.2-0.1-0.4-0.3-0.5s-0.4-0.2-0.6-0.2c-0.1,0-0.3,0-0.6,0s-0.5,0-0.7,0L165,103.4z
		 M165.8,99.1c-0.3,0-0.5,0.1-0.6,0.2c-0.1,0.2-0.1,0.4-0.1,0.8c0,0.5,0,0.9,0.1,1s0.3,0.2,0.6,0.2c0.3,0,0.5-0.1,0.6-0.2
		c0.1-0.2,0.1-0.5,0.1-1.2c0-0.4-0.1-0.6-0.2-0.7S166,99.1,165.8,99.1z"/>
	<path class="st1" d="M180.5,102.6v-3.3h-0.8V99h0.8c0.4,0,0.7,0,0.9-0.1v0.9h0c0.2-0.6,0.6-0.9,1-0.9c0.2,0,0.4,0.1,0.5,0.2
		c0.1,0.1,0.2,0.3,0.2,0.4c0,0.2,0,0.3-0.1,0.4c-0.1,0.1-0.2,0.1-0.4,0.1c-0.3,0-0.4-0.1-0.4-0.4l0-0.2c0-0.1,0-0.1-0.1-0.1
		c-0.1,0-0.2,0.1-0.4,0.4c-0.2,0.3-0.2,0.7-0.2,1.3v1.5h0.8v0.2h-2.5v-0.2H180.5z"/>
	<path class="st1" d="M197.3,100.6v-0.5c0-0.4,0-0.7-0.1-0.8s-0.2-0.2-0.5-0.2c-0.5,0-0.8,0.1-0.8,0.3c0,0.1,0,0.1,0.1,0.2
		c0,0.1,0.1,0.2,0.1,0.2c0,0.1,0,0.2-0.1,0.3c-0.1,0.1-0.2,0.1-0.3,0.1c-0.1,0-0.3,0-0.3-0.1c-0.1-0.1-0.1-0.2-0.1-0.3
		c0-0.3,0.2-0.5,0.5-0.7c0.3-0.2,0.7-0.3,1.3-0.3c0.4,0,0.8,0.1,1,0.2c0.2,0.1,0.3,0.2,0.4,0.4c0,0.2,0.1,0.4,0.1,0.6v1.8
		c0,0.3,0,0.4,0.1,0.5c0,0.1,0.1,0.1,0.2,0.1c0.1,0,0.2-0.1,0.3-0.2h0.1c-0.1,0.5-0.4,0.7-0.8,0.7c-0.5,0-0.7-0.3-0.8-0.8
		c-0.4,0.5-0.8,0.8-1.3,0.8c-0.3,0-0.6-0.1-0.8-0.3c-0.2-0.2-0.3-0.4-0.3-0.7C194.8,101.1,195.6,100.7,197.3,100.6z M197.3,101.4
		v-0.5c-0.6,0-1,0.1-1.2,0.3c-0.2,0.2-0.3,0.4-0.3,0.7c0,0.2,0.1,0.4,0.2,0.5c0.1,0.1,0.2,0.2,0.4,0.2c0.2,0,0.4-0.1,0.5-0.2
		c0.2-0.1,0.3-0.3,0.3-0.4C197.2,101.8,197.3,101.6,197.3,101.4z"/>
	<path class="st1" d="M211.6,102.2v2.9h0.8v0.3H210v-0.3h0.7v-5.9h-0.7V99h0.6c0.4,0,0.8,0,1.1-0.1v0.8h0c0.3-0.6,0.7-0.8,1.2-0.8
		c0.5,0,0.9,0.2,1.2,0.6c0.4,0.4,0.5,0.8,0.5,1.4c0,0.6-0.2,1.1-0.6,1.5c-0.4,0.4-0.8,0.6-1.3,0.6
		C212.3,102.9,211.9,102.6,211.6,102.2L211.6,102.2z M213.5,100.9c0-0.6,0-1-0.1-1.2c0-0.2-0.1-0.4-0.2-0.5
		c-0.1-0.1-0.3-0.1-0.4-0.1c-0.3,0-0.6,0.1-0.8,0.3c-0.2,0.2-0.3,0.4-0.4,0.6c-0.1,0.2-0.1,0.5-0.1,0.9c0,0.4,0,0.7,0.1,0.9
		c0.1,0.2,0.2,0.4,0.4,0.6c0.2,0.2,0.4,0.2,0.7,0.2c0.3,0,0.5-0.1,0.6-0.3C213.5,102.1,213.5,101.6,213.5,100.9z"/>
	<path class="st1" d="M226,102.6v-6h-0.8v-0.2h0.7c0.4,0,0.8,0,1-0.1v3.6h0c0.3-0.6,0.8-0.9,1.4-0.9c0.2,0,0.5,0.1,0.7,0.2
		s0.4,0.3,0.4,0.5c0.1,0.2,0.1,0.6,0.1,1.1v1.9h0.6v0.2h-2.2v-0.2h0.6v-1.9c0-0.5,0-0.9,0-1.1c0-0.2-0.2-0.3-0.4-0.3
		c-0.3,0-0.5,0.1-0.7,0.4c-0.2,0.2-0.3,0.5-0.4,0.7c-0.1,0.3-0.1,0.7-0.1,1.2v1.1h0.6v0.2h-2.3v-0.2H226z"/>
	<path class="st1" d="M244.9,100.6h-2.5c0,1,0,1.6,0.2,1.8c0.1,0.2,0.4,0.3,0.7,0.3c0.7,0,1.2-0.4,1.4-1.2h0.2
		c-0.1,0.5-0.3,0.8-0.6,1.1c-0.3,0.2-0.6,0.3-1,0.3c-0.5,0-1-0.2-1.4-0.6c-0.4-0.4-0.6-0.9-0.6-1.5c0-0.6,0.2-1.1,0.6-1.4
		s0.8-0.6,1.3-0.6c0.4,0,0.8,0.2,1.1,0.5C244.7,99.6,244.8,100,244.9,100.6z M242.4,100.4h1.4c0-0.2,0-0.4,0-0.5
		c0-0.5-0.2-0.8-0.7-0.8c-0.2,0-0.4,0.1-0.6,0.2c-0.1,0.1-0.2,0.3-0.2,0.5V100.4z"/>
	<path class="st1" d="M257.6,102.6v-3.3h-0.8V99h0.8c0.4,0,0.7,0,0.9-0.1v0.9h0c0.2-0.6,0.6-0.9,1-0.9c0.2,0,0.4,0.1,0.5,0.2
		c0.1,0.1,0.2,0.3,0.2,0.4c0,0.2,0,0.3-0.1,0.4c-0.1,0.1-0.2,0.1-0.4,0.1c-0.3,0-0.4-0.1-0.4-0.4l0-0.2c0-0.1,0-0.1-0.1-0.1
		c-0.1,0-0.2,0.1-0.4,0.4c-0.2,0.3-0.2,0.7-0.2,1.3v1.5h0.8v0.2h-2.5v-0.2H257.6z"/>
</g>
</svg>
